<svg viewBox="0 0 44 44" fill="none" xmlns="http://www.w3.org/2000/svg" width="200" height="200" aria-label="Logo PT Food Station Tjipinang Jaya">
  <circle cx="22" cy="22" r="21" fill="#0072CE" fill-opacity="0.07" stroke="#0072CE" stroke-opacity="0.12" stroke-width="1" />
  <path d="M22 8C22 8 33 13.5 33 24.5C33 31.5 27.5 35.5 22 35.5C16.5 35.5 11 31.5 11 24.5C11 13.5 22 8 22 8Z" fill="#2E9A44" />
  <path d="M13.5 24.5C13.5 31.5 17.5 34 22 34C26.5 34 30.5 31.5 30.5 24.5C28 28.5 24.5 30 22 30C19.5 30 16 28.5 13.5 24.5Z" fill="#0072CE" />
  <ellipse cx="22" cy="19" rx="3.5" ry="4.5" fill="#F4B400" />
</svg>
